<mxfile host="app.diagrams.net" agent="Mozilla/5.0 (Macintosh; Intel Mac OS X 10_15_7) AppleWebKit/537.36 (KHTML, like Gecko) Chrome/131.0.0.0 Safari/537.36" version="25.0.3">
  <diagram name="페이지-1" id="bycbs2B0DnJQBn-LFZGj">
    <mxGraphModel dx="448" dy="649" grid="0" gridSize="10" guides="1" tooltips="1" connect="1" arrows="1" fold="1" page="1" pageScale="1" pageWidth="827" pageHeight="1169" math="0" shadow="0">
      <root>
        <mxCell id="0" />
        <mxCell id="1" parent="0" />
        <mxCell id="C1pm3hpFXIxknAUTrPOj-7" style="edgeStyle=orthogonalEdgeStyle;rounded=0;orthogonalLoop=1;jettySize=auto;html=1;" edge="1" parent="1" source="C1pm3hpFXIxknAUTrPOj-2" target="C1pm3hpFXIxknAUTrPOj-5">
          <mxGeometry relative="1" as="geometry" />
        </mxCell>
        <mxCell id="C1pm3hpFXIxknAUTrPOj-2" value="상품 주문" style="rounded=1;whiteSpace=wrap;html=1;" vertex="1" parent="1">
          <mxGeometry x="124" y="142" width="190" height="60" as="geometry" />
        </mxCell>
        <mxCell id="C1pm3hpFXIxknAUTrPOj-8" style="edgeStyle=orthogonalEdgeStyle;rounded=0;orthogonalLoop=1;jettySize=auto;html=1;" edge="1" parent="1" source="C1pm3hpFXIxknAUTrPOj-5" target="C1pm3hpFXIxknAUTrPOj-11">
          <mxGeometry relative="1" as="geometry">
            <mxPoint x="219" y="413.9673385620117" as="targetPoint" />
          </mxGeometry>
        </mxCell>
        <mxCell id="C1pm3hpFXIxknAUTrPOj-9" style="edgeStyle=orthogonalEdgeStyle;rounded=0;orthogonalLoop=1;jettySize=auto;html=1;" edge="1" parent="1" source="C1pm3hpFXIxknAUTrPOj-5">
          <mxGeometry relative="1" as="geometry">
            <mxPoint x="396.53993479410815" y="304" as="targetPoint" />
          </mxGeometry>
        </mxCell>
        <mxCell id="C1pm3hpFXIxknAUTrPOj-5" value="카트에 추가 ?" style="rhombus;whiteSpace=wrap;html=1;" vertex="1" parent="1">
          <mxGeometry x="127.5" y="264" width="183" height="80" as="geometry" />
        </mxCell>
        <mxCell id="C1pm3hpFXIxknAUTrPOj-11" value="카트에 추가 ?" style="rhombus;whiteSpace=wrap;html=1;" vertex="1" parent="1">
          <mxGeometry x="127.5" y="428" width="183" height="80" as="geometry" />
        </mxCell>
      </root>
    </mxGraphModel>
  </diagram>
</mxfile>
